<svg xmlns="http://www.w3.org/2000/svg" id="Layer_1" data-name="Layer 1" viewBox="0 0 504 504"><title>klarna</title><path d="M211.5,238h-.13l-.28-.16a31.65,31.65,0,0,0-20.89-5.11,30.57,30.57,0,0,0-20.29,10.05c-8.64,9.57-11.07,20.73-6.75,32.86,4.08,11.5,12.54,18.37,24.52,20.84,1.08.22,2.18.34,3.28.5h4.88a2.47,2.47,0,0,1,.36-.11,31.78,31.78,0,0,0,14.93-5.19l.39-.21v3.8h18.25v-61H211.5Zm-6.62,39.28a17.69,17.69,0,0,1-10.78,3.19,16.13,16.13,0,0,1-13.76-8.31,15,15,0,0,1,3.56-19.08,17.16,17.16,0,0,1,23.85,1.81A15.14,15.14,0,0,1,204.88,277.27Z"/><path d="M404.29,238.07c-.27-.16-.43-.25-.59-.36a31.59,31.59,0,0,0-18.5-5.13,32.21,32.21,0,0,0-30.55,38.59,31.93,31.93,0,0,0,25.9,25.31c1,.19,2.09.33,3.14.49h5a1.66,1.66,0,0,1,.29-.1,32.13,32.13,0,0,0,14.88-5.15,2.67,2.67,0,0,1,.47-.22v3.75h18.23v-61H404.29ZM397,277.73a18.16,18.16,0,0,1-10.23,2.73,16,16,0,0,1-14.08-9.16c-3.24-6.51-1.33-14,4.45-18.61,6.91-5.46,17.37-4.62,23.11,1.87A15.17,15.17,0,0,1,397,277.73Z"/><path d="M50.52,295.3l.38,0H70.29a4.21,4.21,0,0,0,.5,0V207H50.52Z"/><path d="M347.27,252.68c-1.42-8.51-6.22-14.39-14.06-17.79a29.69,29.69,0,0,0-17-1.86A20.51,20.51,0,0,0,304,239.46c-.42.46-.81.94-1.34,1.56v-6.73H284.54v61h18.4v-.85q0-15.42,0-30.83a22.4,22.4,0,0,1,.2-3.07c.78-5.18,3.57-8.75,8.61-10.4a15.93,15.93,0,0,1,8-.45,10.55,10.55,0,0,1,8.58,7.22,18.09,18.09,0,0,1,.95,6.19q0,15.68,0,31.34v.83h18.29v-.72q0-19.21,0-38.41A21,21,0,0,0,347.27,252.68Z"/><path d="M100.72,257.14a70.16,70.16,0,0,0,15.39-23,70.91,70.91,0,0,0,5.32-27.07H101.57c0,.19,0,.34,0,.49a46.33,46.33,0,0,1-.78,8.55,49.44,49.44,0,0,1-16.32,29c-3.35,2.95-7.06,5.49-10.6,8.22l-.61.48c.12.18.21.32.31.45q14.9,20.32,29.79,40.64a.93.93,0,0,0,.85.42h23.9c.17,0,.35,0,.6-.05l-14-19.08Z"/><path d="M134.62,295.27h19.06V207.06H134.62Z"/><path d="M258.1,242v-7.75H239.39v61h18.75v-.82q0-13.77,0-27.55a12.15,12.15,0,0,1,2.45-7.49,18.55,18.55,0,0,1,11.11-6.86c1.39-.33,2.82-.44,4.27-.65V234.21C269,234.41,262.91,236.58,258.1,242Z"/><path d="M442.56,273.64a11.48,11.48,0,1,0,10.88,12.46A11.42,11.42,0,0,0,442.56,273.64Z"/><path d="M434.8,241.36a4.38,4.38,0,1,0-4.31-4.4A4.35,4.35,0,0,0,434.8,241.36Zm.07-7.88a3.51,3.51,0,0,1,0,7,3.51,3.51,0,0,1,0-7Z"/><path d="M434.19,237.61c.58-.16,1-.07,1.12.53a6,6,0,0,0,.25.58c.28.63.33.65,1.1.41l-.74-1.7a4.81,4.81,0,0,0,.4-.36,1.43,1.43,0,0,0-.6-2.34,14.26,14.26,0,0,0-2.36-.17v4.61h.83Zm0-2.32a10.86,10.86,0,0,1,1.48.42.91.91,0,0,1,0,.67,13.15,13.15,0,0,1-1.51.52Z"/></svg>