<svg xmlns="http://www.w3.org/2000/svg" id="Layer_1" data-name="Layer 1" viewBox="0 0 504 504"><defs><style>.cls-1{fill:#7673c0;}.cls-2{fill:#eb001b;}.cls-3{fill:#00a1df;}</style></defs><title>maestro</title><path d="M187.59,377.46v-16.8a9.93,9.93,0,0,0-9.22-10.61,10.93,10.93,0,0,0-1.28,0,10.37,10.37,0,0,0-9.4,4.76,9.84,9.84,0,0,0-8.85-4.76,8.85,8.85,0,0,0-7.84,4v-3.3h-5.83v26.74h5.88V362.64a6.25,6.25,0,0,1,5.31-7.06,6.51,6.51,0,0,1,1.25-.05c3.86,0,5.82,2.52,5.82,7.06v14.86h5.88V362.64a6.3,6.3,0,0,1,5.43-7.06,6,6,0,0,1,1.12-.05c4,0,5.88,2.52,5.88,7.06v14.86Zm32.76-13.36V350.74h-5.88V354a10.16,10.16,0,0,0-8.4-3.92,14,14,0,0,0,0,28,10.1,10.1,0,0,0,8.4-3.92v3.25h5.83Zm-21.64,0a7.53,7.53,0,1,1-.07.75c0-.25,0-.5,0-.75Zm146.08-14a15.18,15.18,0,0,1,5.6,1.06,13.93,13.93,0,0,1,4.56,3,13.51,13.51,0,0,1,3,4.45,14.77,14.77,0,0,1,0,11.2,13.4,13.4,0,0,1-3,4.46,14.06,14.06,0,0,1-4.56,3,15.79,15.79,0,0,1-11.48,0,13.55,13.55,0,0,1-7.54-7.42,14.87,14.87,0,0,1,0-11.2,13.64,13.64,0,0,1,7.54-7.42,15.25,15.25,0,0,1,5.82-1.15Zm0,5.6a8.5,8.5,0,0,0-3.34.62,8,8,0,0,0-2.66,1.76,8.2,8.2,0,0,0-1.76,2.8,9.76,9.76,0,0,0,0,6.94,8.1,8.1,0,0,0,1.76,2.8,7.9,7.9,0,0,0,2.66,1.77,9.16,9.16,0,0,0,6.64,0,7.48,7.48,0,0,0,4.56-4.57,9.66,9.66,0,0,0,0-6.94,8,8,0,0,0-1.76-2.8,7.82,7.82,0,0,0-2.8-1.76,8.53,8.53,0,0,0-3.36-.79ZM252,364.1c0-8.4-5.2-14-12.68-14a14,14,0,0,0,.39,28,16.22,16.22,0,0,0,11-3.75l-2.8-4.32a12.68,12.68,0,0,1-7.78,2.8,7.41,7.41,0,0,1-8-6.55h19.85A19.14,19.14,0,0,0,252,364.1Zm-19.9-2.35a6.88,6.88,0,0,1,7-6.47,6.64,6.64,0,0,1,6.78,6.49h0Zm44.4-4.2a17.06,17.06,0,0,0-8.4-2.3c-3.19,0-5.09,1.18-5.09,3.14s2,2.29,4.53,2.63l2.8.39c5.83.84,9.36,3.3,9.36,8s-4.48,8.73-12.18,8.73a19.28,19.28,0,0,1-11.57-3.47l2.8-4.53a14.32,14.32,0,0,0,8.91,2.8c4,0,6.1-1.18,6.1-3.25,0-1.51-1.51-2.35-4.7-2.8l-2.8-.39c-6-.84-9.24-3.53-9.24-7.9,0-5.32,4.36-8.57,11.2-8.57a20,20,0,0,1,10.89,2.8Zm28-1.52H295V368.1c0,2.8.95,4.48,3.87,4.48a10.78,10.78,0,0,0,5.15-1.51l1.68,5a13.59,13.59,0,0,1-7.28,2.08c-6.89,0-9.3-3.7-9.3-9.92V356h-5.43v-5.32h5.43v-8.12H295v8.12h9.49Zm20.14-6a12.45,12.45,0,0,1,4.14.73l-1.79,5.6a9.48,9.48,0,0,0-3.64-.67c-3.81,0-5.6,2.46-5.6,6.89v15h-5.83V350.83h5.77v3.25a7.88,7.88,0,0,1,7.06-3.92Zm40.26,23.52a2.93,2.93,0,0,1,1.06.2,2.65,2.65,0,0,1,.87.56,2.72,2.72,0,0,1,.59.84,2.57,2.57,0,0,1,0,2.07,2.72,2.72,0,0,1-.59.84,2.65,2.65,0,0,1-.87.56,2.4,2.4,0,0,1-1.06.22,2.8,2.8,0,0,1-2.52-1.62,2.66,2.66,0,0,1,0-2.07,2.72,2.72,0,0,1,.59-.84,2.76,2.76,0,0,1,.87-.56,2.86,2.86,0,0,1,.92-.2Zm0,4.73a1.86,1.86,0,0,0,.81-.16,2.23,2.23,0,0,0,.65-.45,2.08,2.08,0,0,0,0-2.93,2.12,2.12,0,0,0-.64-.43,2,2,0,0,0-.81-.17,2.06,2.06,0,0,0-.81.17,1.89,1.89,0,0,0-.67.45,2,2,0,0,0,1.48,3.41Zm.17-3.33a1.14,1.14,0,0,1,.73.23.71.71,0,0,1,.25.58.65.65,0,0,1-.2.51,1,1,0,0,1-.59.25l.82.92h-.65l-.75-.92h-.26v.92h-.53v-2.57Zm-.62.48v.67h.62a.62.62,0,0,0,.33,0,.28.28,0,0,0,0-.25.28.28,0,0,0,0-.25.47.47,0,0,0-.33,0Z"/><g id="_Group_" data-name=" Group "><rect class="cls-1" x="207.89" y="146.71" width="88.2" height="158.51"/><path id="_Path_" data-name=" Path " class="cls-2" d="M213.49,226A100.65,100.65,0,0,1,252,146.71a100.8,100.8,0,1,0,0,158.5A100.65,100.65,0,0,1,213.49,226Z"/><path class="cls-3" d="M405.46,288.41v-3.13h1.32v-.67h-3.33v.67h1.31v3.25Zm6.47,0V284.5h-1l-1.17,2.8-1.18-2.8h-1v3.91h.73v-2.93l1.09,2.54h.76l1.09-2.54v3Z"/><path class="cls-3" d="M415.07,226A100.8,100.8,0,0,1,252,305.21a100.79,100.79,0,0,0,0-158.5A100.79,100.79,0,0,1,415.09,226Z"/></g></svg>