<svg xmlns="http://www.w3.org/2000/svg" id="Layer_1" data-name="Layer 1" viewBox="0 0 504 504"><defs><style>.cls-1{fill:#231f20;}.cls-2{fill:#ff5f00;}.cls-3{fill:#eb001b;}.cls-4{fill:#f79e1b;}</style></defs><title>mastercard</title><path class="cls-1" d="M148.25,377.45v-16.8A10,10,0,0,0,139,350a10.76,10.76,0,0,0-1.27,0,10.38,10.38,0,0,0-9.41,4.76,9.86,9.86,0,0,0-8.85-4.76,8.87,8.87,0,0,0-7.84,4v-3.3h-5.82v26.76h5.88V362.73a6.27,6.27,0,0,1,5.36-7.07,6.77,6.77,0,0,1,1.19-.05c3.86,0,5.82,2.52,5.82,7.06v14.9h5.88V362.73a6.31,6.31,0,0,1,5.43-7.07,7,7,0,0,1,1.12-.05c4,0,5.88,2.52,5.88,7.06v14.9Zm87-26.76h-9.58v-8.12h-5.88v8.12h-5.32V356h5.44v12.32c0,6.21,2.4,9.91,9.29,9.91a13.65,13.65,0,0,0,7.28-2.07l-1.68-5a10.74,10.74,0,0,1-5.15,1.51c-2.8,0-3.86-1.79-3.86-4.48V356h9.52Zm49.67-.68a7.89,7.89,0,0,0-7.05,3.92v-3.24H272.1v26.76h5.82v-15c0-4.43,1.91-6.89,5.6-6.89a9.41,9.41,0,0,1,3.64.67l1.79-5.6a12.7,12.7,0,0,0-4.14-.73Zm-75.09,2.8a20.05,20.05,0,0,0-10.92-2.8c-6.78,0-11.2,3.25-11.2,8.57,0,4.37,3.24,7.06,9.24,7.9l2.8.39c3.19.45,4.7,1.29,4.7,2.8,0,2.07-2.13,3.25-6.1,3.25a14.26,14.26,0,0,1-8.91-2.8l-2.8,4.53a19.37,19.37,0,0,0,11.59,3.48c7.73,0,12.21-3.64,12.21-8.74s-3.53-7.17-9.35-8l-2.8-.39c-2.52-.34-4.54-.84-4.54-2.63s1.91-3.14,5.1-3.14a17.34,17.34,0,0,1,8.4,2.3Zm156-2.8a7.89,7.89,0,0,0-7.05,3.92v-3.24H353v26.76h5.82v-15c0-4.43,1.91-6.89,5.6-6.89a9.41,9.41,0,0,1,3.64.67l1.8-5.6a12.72,12.72,0,0,0-4.15-.73Zm-75,14a13.54,13.54,0,0,0,13,14c.42,0,.84,0,1.26,0a14,14,0,0,0,9.64-3.19l-2.8-4.7a11.83,11.83,0,0,1-7,2.41,8.6,8.6,0,0,1,0-17.14,11.76,11.76,0,0,1,7,2.41l2.8-4.71a14.06,14.06,0,0,0-9.64-3.19,13.52,13.52,0,0,0-14.26,12.74c0,.42,0,.84,0,1.26Zm54.55,0V350.69h-5.83v3.24a10.16,10.16,0,0,0-8.4-3.92,14,14,0,1,0,0,28,10.1,10.1,0,0,0,8.4-3.92v3.25h5.83Zm-21.67,0a8,8,0,1,1,0,.64C323.63,364.44,323.63,364.23,323.65,364Zm-70.28-14a14,14,0,1,0,.39,28h0a16.22,16.22,0,0,0,11.11-3.64l-2.8-4.31a12.68,12.68,0,0,1-7.78,2.8,7.42,7.42,0,0,1-8-6.55h19.88v-2.24c0-8.4-5.21-14-12.71-14Zm0,5.21a6.64,6.64,0,0,1,6.77,6.5h-14a6.89,6.89,0,0,1,7.11-6.5Zm145.9,8.85V339.93h-5.6v14a10.16,10.16,0,0,0-8.4-3.92,14,14,0,0,0,0,28,10.1,10.1,0,0,0,8.4-3.92v3.25h5.6Zm9.72,9.49a2.93,2.93,0,0,1,1.06.2,2.65,2.65,0,0,1,.87.56,2.72,2.72,0,0,1,.59.84,2.57,2.57,0,0,1,0,2.07,2.72,2.72,0,0,1-.59.84,2.65,2.65,0,0,1-.87.56,2.4,2.4,0,0,1-1.06.22,2.8,2.8,0,0,1-2.52-1.62,2.66,2.66,0,0,1,0-2.07,2.72,2.72,0,0,1,.59-.84,2.77,2.77,0,0,1,2-.76Zm0,4.73a1.86,1.86,0,0,0,.81-.16,2.23,2.23,0,0,0,.65-.45,2.08,2.08,0,0,0,0-2.8,2.23,2.23,0,0,0-.65-.45,2,2,0,0,0-.81-.17,2.06,2.06,0,0,0-.81.17,2,2,0,0,0-.67.45,2.06,2.06,0,0,0,0,2.8,2.19,2.19,0,0,0,.67.45,2,2,0,0,0,.89.16Zm.17-3.33a1.14,1.14,0,0,1,.73.23.71.71,0,0,1,.25.58.65.65,0,0,1-.2.51.93.93,0,0,1-.59.25l.82.92h-.65l-.75-.92h-.26v.92H408V375Zm-.62.48v.67h.62a.62.62,0,0,0,.33,0,.28.28,0,0,0,0-.25.28.28,0,0,0,0-.25.47.47,0,0,0-.33,0Zm-30.8-11.37a8.12,8.12,0,1,1,0,.64C377.72,364.49,377.73,364.28,377.74,364.07Zm-196.64,0V350.69h-5.83v3.24a10.16,10.16,0,0,0-8.4-3.92,14,14,0,0,0,0,28,10.1,10.1,0,0,0,8.4-3.92v3.25h5.83Zm-21.67,0a7.42,7.42,0,1,1-.08.69c0-.23,0-.46,0-.69Z"/><rect class="cls-2" x="207.89" y="146.71" width="88.2" height="158.51"/><path id="_Path_" data-name=" Path " class="cls-3" d="M213.49,226A100.65,100.65,0,0,1,252,146.71a100.8,100.8,0,1,0,0,158.5A100.66,100.66,0,0,1,213.49,226Z"/><path class="cls-4" d="M415.09,226A100.8,100.8,0,0,1,252,305.21a100.79,100.79,0,0,0,0-158.5A100.79,100.79,0,0,1,415.09,226Z"/><path class="cls-4" d="M405.46,288.41v-3.24h1.32v-.68h-3.33v.68h1.42v3.24Zm6.47,0v-3.92h-1l-1.17,2.8-1.18-2.8h-.9v3.92h.73v-2.94l1.09,2.55h.76l1.09-2.55v3Z"/></svg>