<svg xmlns="http://www.w3.org/2000/svg" id="Layer_1" data-name="Layer 1" viewBox="0 0 504 504">
<defs>
<style>.cls-1{fill:#32a6ce;}.cls-2{fill:#1a80ad;}.cls-3{fill:#21789e;}.cls-4{fill:#1a5b80;}.cls-5{fill:#06435e;}.cls-6{fill:#2273aa;}</style>
</defs>
<title>paypal</title>
<path class="cls-1" d="M382.58,210.12c-11.42,0-20.56,3-28.18,4.57l-2.28,17.51a100.39,100.39,0,0,1,23.6-5.33c9.14,0,14.47,1.53,12.95,9.9-27.41,0-45.69,5.33-49.49,23.61-5.33,30.45,28.17,31.21,41.11,17.51l-1.52,8.37h24.36l10.66-49.49c3.81-20.55-14.46-27.41-31.21-26.65Zm1.52,51c-1.52,6.09-6.85,8.37-12.94,9.13-5.33,0-9.9-3-6.86-9.13,3.05-4.57,9.9-4.57,15.23-4.57h6.09c-.76-.76-1.52,2.28-1.52,4.57Z"/>
<path class="cls-2" d="M352.12,232.2a100.39,100.39,0,0,1,23.6-5.33c9.14,0,14.47,1.53,12.95,9.9-27.41,0-45.69,5.33-49.49,23.61-5.33,30.45,28.17,31.21,41.11,17.51l-1.52,8.37h24.36l10.66-49.49c4.57-20.55-14.46-25.88-31.21-25.88m1.52,50.25c-1.52,6.09-6.85,8.37-12.94,9.13-5.33,0-9.9-3-6.86-9.13,3.05-4.57,9.9-4.57,15.23-4.57h6.09c-.76-.76-1.52,2.28-1.52,4.57Z"/><path class="cls-1" d="M434.35,187.28l-19.8,99h24.37l20.55-99Z"/>
<path class="cls-2" d="M451.86,187.28l-37.31,99h24.37l20.55-99h-7.61Z"/>
<path class="cls-1" d="M320.9,187.28H276l-19.79,99h26.65l6.85-30.45h19c18.28,0,33.5-10.66,37.31-29.7,3.81-22.08-12.18-38.83-25.13-38.83Zm-.76,34.27c-1.52,6.85-8.37,11.42-15.22,11.42H292.73l5.33-22.85H311c6.85,0,10.66,4.57,9.13,11.43Z"/>
<path class="cls-2" d="M320.9,187.28H290.45l-35,99h26.64l6.86-30.45h19c18.27,0,33.5-10.66,37.31-29.7,4.57-22.08-11.42-38.83-24.37-38.83Zm-.76,34.27c-1.52,6.85-8.37,11.42-15.22,11.42H292.73l5.33-22.85H311c6.85,0,10.66,4.57,9.13,11.43Z"/>
<path class="cls-3" d="M145,210.12c-11.42,0-20.56,3-27.41,4.57l-2.29,17.51c3-1.52,14.47-4.56,23.61-5.33,9.13,0,14.46,1.53,12.94,9.9-26.65,0-44.92,5.33-48.73,23.61-5.33,30.45,27.41,31.21,40.35,17.51L142,286.26h24.37L177,236.77c3.81-20.55-15.22-27.41-32-26.65Zm2.28,51c-1.52,6.09-6.85,8.37-12.94,9.13-5.33,0-9.9-3-6.09-9.13,3-4.57,9.89-4.57,14.46-4.57h6.09c-.76-.76-1.52,2.28-1.52,4.57Z"/>
<path class="cls-4" d="M116.09,232.2c3-1.52,14.47-4.56,23.61-5.33,9.13,0,14.46,1.53,12.94,9.9-26.65,0-44.92,5.33-48.73,23.61-5.33,30.45,27.41,31.21,40.36,17.51L142,286.26h24.37L177,236.77c4.57-20.55-14.46-25.88-31.21-25.88m1.52,50.25c-1.52,6.09-6.85,8.37-12.94,9.13-5.33,0-9.9-3-6.09-9.13,3-4.57,9.89-4.57,14.46-4.57h6.09c-.76-.76-1.52,2.28-1.52,4.57Z"/><path class="cls-3" d="M186.9,210.12h24.37l3.8,42.64,24.37-42.64h25.12L206.7,316.72H179.29l17.51-32Z"/><path class="cls-4" d="M211.27,211.65l3.8,41.87,24.37-43.4h25.12L206.7,316.72H179.29L196.8,285.5"/><path class="cls-3" d="M84.88,187.28H39.2l-19.8,99H46.05l6.85-30.45h19c18.28,0,33.51-10.66,37.31-29.7C113.81,204,97.82,187.28,84.88,187.28Zm-.76,34.27C82.59,228.4,75.74,233,68.89,233H56.71L62,210.12H75C81.83,210.12,85.64,214.69,84.12,221.55Z"/><path class="cls-4" d="M84.88,187.28H64.32l-44.92,99H46.05l6.85-30.45h19c18.28,0,33.51-10.66,37.31-29.7C113.81,204,97.82,187.28,84.88,187.28Zm-.76,34.27C82.59,228.4,75.74,233,68.89,233H56.71L62,210.12H75C81.83,210.12,85.64,214.69,84.12,221.55Z"/><path class="cls-5" d="M140.46,236.77c-20.56,1.53-34.26,7.62-37.31,22.84-5.33,30.46,27.41,31.22,40.35,17.52L142,286.26h24.37l3.8-18.27-29.69-31.22Zm6.85,24.37c-1.52,6.09-6.85,8.37-12.94,9.13-5.33,0-9.9-3-6.09-9.13,3-4.57,9.89-4.57,14.46-4.57h6.09c-.76-.76-1.52,2.28-1.52,4.57ZM216.6,252l-1.53,2.28,16,15.23,33.5-59.39H239.44ZM46.05,286.26l6.85-30.45L21.68,286.26Z"/><path class="cls-6" d="M282.07,286.26l6.86-32v.77l-31.22,31.21Zm95.18-49.49c-20.56,1.53-34.27,7.62-37.31,22.84-5.33,30.46,28.17,31.22,41.11,17.52l-2.28,9.13h24.36L406.94,268l-29.69-31.22Zm6.85,24.37c-1.52,6.09-6.85,8.37-12.94,9.13-5.33,0-9.9-3-6.86-9.13,3.05-4.57,9.9-4.57,15.23-4.57h6.09c-.76-.76-1.52,2.28-1.52,4.57Zm48-19.8-17.52,44.92h24.37l6.85-30.45Z"/><path class="cls-1" d="M464.8,203.27V192.61H461v-1.52h9.9v1.52h-3.81v10.66Zm7.62,0V191.09h2.28l3.05,8.38a2.65,2.65,0,0,0,.76,1.52c0-.76,0-.76.76-2.29l3.05-8.37h2.28v12.18h-1.52V191.85l-3.81,10.66H477l-3.81-10.66v10.66h-.76v.76Z"/>
</svg>