<svg xmlns="http://www.w3.org/2000/svg" id="Layer_1" data-name="Layer 1" viewBox="0 0 504 504"><defs><style>.cls-1{fill:#3c58bf;}.cls-2{fill:#293688;}.cls-3{fill:#ffbc00;}.cls-4{fill:#f7981d;}.cls-5{fill:#ed7c00;}.cls-6{fill:#051244;}</style></defs><title>visa</title><path class="cls-1" d="M198.24,309.92l20.48-115.2h32l-19.84,115.2Z"/><path class="cls-2" d="M198.24,309.92l26.24-115.2h26.24l-19.84,115.2Z"/><path class="cls-1" d="M346.72,196a81.18,81.18,0,0,0-29.44-5.12c-32,0-55,16-55,39,0,17.28,16,26.24,28.8,32s16.64,9.6,16.64,14.72c0,7.68-10.24,11.52-19.2,11.52-12.8,0-19.84-1.92-30.72-6.4l-4.48-1.92-4.48,26.24c7.68,3.2,21.76,6.4,36.48,6.4,33.92,0,56.32-16,56.32-40.32,0-13.44-8.32-23.68-27.52-32-11.52-5.76-18.56-9-18.56-14.72,0-5.12,5.76-10.24,18.56-10.24,10.88,0,18.56,1.92,24.32,4.48l3.2,1.28,5.12-25Z"/><path class="cls-2" d="M346.72,196a81.18,81.18,0,0,0-29.44-5.12c-32,0-49.28,16-49.28,39,0,17.28,10.24,26.24,23,32s16.64,9.6,16.64,14.72c0,7.68-10.24,11.52-19.2,11.52-12.8,0-19.84-1.92-30.72-6.4l-4.48-1.92-4.48,26.24c7.68,3.2,21.76,6.4,36.48,6.4,33.92,0,56.32-16,56.32-40.32,0-13.44-8.32-23.68-27.52-32-11.52-5.76-18.56-9-18.56-14.72,0-5.12,5.76-10.24,18.56-10.24,10.88,0,18.56,1.92,24.32,4.48l3.2,1.28,5.12-25Z"/><path class="cls-1" d="M401.76,194.72c-7.68,0-13.44.64-16.64,8.32l-48,106.88h34.56l6.4-19.2h41l3.84,19.2H453.6l-26.88-115.2ZM387,271.52c1.92-5.76,12.8-33.92,12.8-33.92s2.56-7,4.48-11.52L406.24,237s6.4,28.8,7.68,35.2H387v-.64Z"/><path class="cls-2" d="M409.44,194.72c-7.68,0-13.44.64-16.64,8.32L337.12,309.92h34.56l6.4-19.2h41l3.84,19.2H453.6l-26.88-115.2ZM387,271.52c2.56-6.4,12.8-33.92,12.8-33.92s2.56-7,4.48-11.52L406.24,237s6.4,28.8,7.68,35.2H387v-.64Z"/><path class="cls-1" d="M139.36,275.36l-3.2-16.64c-5.76-19.2-24.32-40.32-44.8-50.56l28.8,102.4h34.56l51.84-115.2H172Z"/><path class="cls-2" d="M139.36,275.36l-3.2-16.64c-5.76-19.2-24.32-40.32-44.8-50.56l28.8,102.4h34.56l51.84-115.2H178.4Z"/><path class="cls-3" d="M50.4,194.72,56.16,196c41,9.6,69.12,33.92,80,62.72l-11.52-54.4c-1.92-7.68-7.68-9.6-14.72-9.6Z"/><path class="cls-4" d="M50.4,194.72c41,9.6,74.88,34.56,85.76,63.36l-10.88-45.44a15.62,15.62,0,0,0-15.36-12.16Z"/><path class="cls-5" d="M50.4,194.72c41,9.6,74.88,34.56,85.76,63.36l-7.68-25c-1.92-7.68-4.48-15.36-13.44-18.56Z"/><path class="cls-6" d="M171.36,271.52,149.6,249.76l-10.24,24.32-2.56-16c-5.76-19.2-24.32-40.32-44.8-50.56l28.8,102.4h34.56l16-38.4Zm59.52,38.4-27.52-28.16-5.12,28.16Zm73.6-39.68c2.56,2.56,3.84,4.48,3.2,7,0,7.68-10.24,11.52-19.2,11.52-12.8,0-19.84-1.92-30.72-6.4l-4.48-1.92-4.48,26.24c7.68,3.2,21.76,6.4,36.48,6.4,20.48,0,37.12-5.76,46.72-16l-27.52-26.88Zm37.12,39.68h30.08l6.4-19.2h41l3.84,19.2H453.6L442.72,263.2l-38.4-37.12,1.92,10.24s6.4,28.8,7.68,35.2H387c2.56-6.4,12.8-33.92,12.8-33.92s2.56-7,4.48-11.52"/></svg>